
<svg width="20px" height="13px" viewBox="0 0 20 13" version="1.1" xmlns="http://www.w3.org/2000/svg" xmlns:xlink="http://www.w3.org/1999/xlink">
    <!-- Generator: Sketch 48.1 (47250) - http://www.bohemiancoding.com/sketch -->
    <desc>Created with Sketch.</desc>
    <defs></defs>
    <g id="Page-1" stroke="none" stroke-width="1" fill="none" fill-rule="evenodd">
        <g id="github" transform="translate(0.000000, -23.000000)" fill="#ffffff" fill-rule="nonzero">
            <g id="discord" transform="translate(0.000000, 23.000000)">
                <path d="M17.31583,1.87568003 C16.1488,0.70147401 12.0496,0 12.0496,0 L12.0496,0.365986005 C12.0496,0.365986005 14.22319,1.12845802 14.67542,1.66218802 C14.67542,1.66218802 14.36907,1.79943303 14.36907,1.79943303 C13.94602,1.38769902 12.85193,1.11320902 12.32677,0.960714014 C12.29759,0.945465013 12.25383,0.945465013 12.23924,0.945465013 C11.90372,0.884467012 11.53902,0.838719012 11.18891,0.808220011 C11.14515,0.808220011 11.11597,0.808220011 11.07221,0.792971011 C10.95551,0.777721011 10.75128,0.777721011 10.75128,0.777721011 C10.75128,0.777721011 10.66375,0.777721011 10.63457,0.777721011 C10.45952,0.777721011 10.25529,0.762472011 10.08023,0.762472011 C10.06565,0.762472011 10.05106,0.762472011 10.03647,0.762472011 C10.00729,0.762472011 9.99271,0.762472011 9.96353,0.762472011 C9.78848,0.762472011 9.65718,0.762472011 9.48213,0.777721011 C9.42378,0.762472011 9.42378,0.762472011 9.42378,0.762472011 C9.42378,0.762472011 9.38001,0.762472011 9.36543,0.762472011 C9.23414,0.762472011 9.08826,0.777721011 8.95697,0.792971011 C8.9132,0.792971011 8.86944,0.792971011 8.81109,0.808220011 C8.44639,0.838719012 8.09628,0.884467012 7.76076,0.945465013 C7.73158,0.945465013 7.70241,0.945465013 7.67323,0.960714014 C7.14807,1.11320902 6.06856,1.38769902 5.64551,1.79943303 C5.64551,1.79943303 5.38293,1.66218802 5.38293,1.66218802 C5.83516,1.12845802 8.09628,0.365986005 8.09628,0.365986005 L8.09628,0 C8.09628,0 3.90956,0.71672301 2.74252,1.87568003 C0.93363,3.69036305 0,10.8575972 0,10.8575972 C0,10.8575972 1.2108,13.7702392 4.91612,12.7790262 L5.58716,11.7420642 C5.58716,11.7420642 4.02626,11.0100922 4.02626,10.6746042 C4.02626,10.6746042 4.43472,10.8270982 4.5806,10.8728472 C5.14953,11.0710892 6.30197,11.4828242 6.88549,11.6658172 C6.91466,11.6810672 6.94384,11.6810672 6.97301,11.6810672 C7.06054,11.6963162 7.14807,11.7115662 7.22101,11.7420642 C7.26477,11.7573142 7.30853,11.7573142 7.3523,11.7725632 C7.42524,11.7878132 7.49818,11.8030622 7.5857,11.8183122 C7.64406,11.8335612 7.70241,11.8335612 7.76076,11.8488112 C7.8337,11.8640602 7.90664,11.8793092 7.97958,11.8793092 C8.03793,11.8945592 8.11087,11.8945592 8.16922,11.9098082 C8.24216,11.9250582 8.30051,11.9250582 8.37345,11.9403072 C8.44639,11.9555572 8.51933,11.9555572 8.59227,11.9708062 C8.65062,11.9708062 8.72356,11.9860552 8.78191,11.9860552 C8.85485,11.9860552 8.94238,12.0013052 9.01532,12.0013052 C9.07367,12.0013052 9.14661,12.0165542 9.20496,12.0165542 C9.2779,12.0165542 9.2779,12.0165542 9.42378,12.0318042 C9.42378,12.0318042 9.40919,12.0318042 9.42378,12.0318042 C9.46754,12.0318042 9.51131,12.0318042 9.55507,12.0318042 C9.70095,12.0318042 9.81765,12.0318042 9.96353,12.0318042 C9.97812,12.0318042 9.99271,12.0318042 10.00729,12.0318042 C10.02188,12.0318042 10.02188,12.0318042 10.03647,12.0318042 C10.06565,12.0318042 10.09482,12.0318042 10.124,12.0318042 C10.15317,12.0318042 10.18235,12.0318042 10.21152,12.0318042 C10.29905,12.0318042 10.38658,12.0318042 10.47411,12.0318042 C10.51787,12.0318042 10.6054,12.0318042 10.66375,12.0318042 C10.67834,12.0318042 10.75128,12.0318042 10.75128,12.0318042 C10.75128,12.0318042 10.79504,12.0318042 10.82422,12.0318042 C10.88257,12.0318042 10.92633,12.0165542 10.99927,12.0165542 C11.07221,12.0165542 11.14515,12.0013052 11.23268,12.0013052 C11.29103,12.0013052 11.36397,11.9860552 11.42232,11.9860552 C11.49526,11.9708062 11.5682,11.9708062 11.62655,11.9555572 C11.69949,11.9403072 11.75784,11.9403072 11.83078,11.9250582 C11.88913,11.9098082 11.96207,11.9098082 12.02042,11.8945592 C12.09336,11.8793092 12.1663,11.8640602 12.23924,11.8640602 C12.29759,11.8488112 12.35594,11.8488112 12.4143,11.8335612 C12.48724,11.8183122 12.57476,11.8030622 12.6477,11.7878132 C12.69147,11.7725632 12.73523,11.7725632 12.77899,11.7573142 C12.86652,11.7420642 12.95405,11.7268152 13.02699,11.6963162 C13.05616,11.6963162 13.08534,11.6810672 13.11451,11.6810672 C13.69803,11.5133232 14.85047,11.1015882 15.4194,10.8880962 C15.55069,10.8423482 15.97374,10.6898542 15.97374,10.6898542 C15.97374,11.0100922 14.41284,11.7573142 14.41284,11.7573142 L15.08388,12.7942752 C18.77462,13.7854892 20,10.8728472 20,10.8728472 C20,10.8728472 19.12473,3.69036305 17.31583,1.87568003 Z M7.20642,9.469899 C6.28738,9.469899 5.5434,8.692178 5.5434,7.731463 C5.5434,6.770749 6.28738,5.993028 7.20642,5.993028 C8.12546,5.993028 8.86944,6.770749 8.86944,7.731463 C8.88403,8.692178 8.12546,9.469899 7.20642,9.469899 Z M12.77899,9.469899 C11.85996,9.469899 11.11597,8.692178 11.11597,7.731463 C11.11597,6.770749 11.85996,5.993028 12.77899,5.993028 C13.69803,5.993028 14.44201,6.770749 14.44201,7.731463 C14.44201,8.692178 13.69803,9.469899 12.77899,9.469899 Z" id="Shape"></path>
            </g>
        </g>
    </g>
</svg>