<svg width="100%" height="100%" viewBox="0 0 80 80" version="1.1" xmlns="http://www.w3.org/2000/svg" xmlns:xlink="http://www.w3.org/1999/xlink">
<title>Vector 4</title>
<desc>Created using Figma</desc>
<g id="Canvas" transform="translate(496 -327)">
<g id="Vector 4">
<use xlink:href="#path0_fill" transform="translate(-497 326)"/>
<!-- <use xlink:href="#path1_stroke" transform="translate(-497 326)" fill="#F2F2F2"/> -->
</g>
</g>
<defs>
<path id="path0_fill" d="M 2.12132 38.8787L 38.8787 2.12132C 40.0503 0.949748 41.9497 0.949747 43.1213 2.12132L 79.8787 38.8787C 81.0503 40.0503 81.0503 41.9497 79.8787 43.1213L 43.1213 79.8787C 41.9497 81.0503 40.0503 81.0503 38.8787 79.8787L 2.12132 43.1213C 0.949748 41.9497 0.949747 40.0503 2.12132 38.8787Z"/>
<path id="path1_stroke" d="M 38.8787 2.12132L 38.9671 2.20971L 38.9671 2.20971L 38.8787 2.12132ZM 2.12132 38.8787L 2.20971 38.9671L 2.20971 38.9671L 2.12132 38.8787ZM 2.12132 43.1213L 2.20971 43.0329L 2.20971 43.0329L 2.12132 43.1213ZM 38.8787 79.8787L 38.9671 79.7903L 38.9671 79.7903L 38.8787 79.8787ZM 43.1213 79.8787L 43.0329 79.7903L 43.0329 79.7903L 43.1213 79.8787ZM 79.8787 43.1213L 79.7903 43.0329L 79.7903 43.0329L 79.8787 43.1213ZM 79.8787 38.8787L 79.7903 38.9671L 79.7903 38.9671L 79.8787 38.8787ZM 43.1213 2.12132L 43.0329 2.20971L 43.0329 2.20971L 43.1213 2.12132ZM 38.7903 2.03293L 2.03293 38.7903L 2.20971 38.9671L 38.9671 2.20971L 38.7903 2.03293ZM 2.03293 43.2097L 38.7903 79.9671L 38.9671 79.7903L 2.20971 43.0329L 2.03293 43.2097ZM 43.2097 79.9671L 79.9671 43.2097L 79.7903 43.0329L 43.0329 79.7903L 43.2097 79.9671ZM 79.9671 38.7903L 43.2097 2.03293L 43.0329 2.20971L 79.7903 38.9671L 79.9671 38.7903ZM 79.9671 43.2097C 81.1875 41.9893 81.1875 40.0107 79.9671 38.7903L 79.7903 38.9671C 80.9131 40.0898 80.9131 41.9102 79.7903 43.0329L 79.9671 43.2097ZM 38.7903 79.9671C 40.0107 81.1875 41.9893 81.1875 43.2097 79.9671L 43.0329 79.7903C 41.9102 80.9131 40.0898 80.9131 38.9671 79.7903L 38.7903 79.9671ZM 2.03293 38.7903C 0.812543 40.0107 0.812544 41.9893 2.03293 43.2097L 2.20971 43.0329C 1.08695 41.9102 1.08695 40.0898 2.20971 38.9671L 2.03293 38.7903ZM 38.9671 2.20971C 40.0898 1.08695 41.9102 1.08695 43.0329 2.20971L 43.2097 2.03293C 41.9893 0.812543 40.0107 0.812544 38.7903 2.03293L 38.9671 2.20971Z"/>
</defs>
</svg>
