<svg width="327px" height="296px" viewBox="0 0 327 296" version="1.1" xmlns="http://www.w3.org/2000/svg" xmlns:xlink="http://www.w3.org/1999/xlink">
    <!-- Generator: Sketch 43.2 (39069) - http://www.bohemiancoding.com/sketch -->
    <desc>Created with Sketch.</desc>
    <defs/>
    <g id="Page-1" stroke="none" stroke-width="1" fill="none" fill-rule="evenodd">
        <g id="Group-3">
            <g id="Group-2" stroke="#979797" fill="#D8D8D8">
                <path d="M76,34 C76,34 23,77 36,169 C41.6296269,208.840437 72.0183241,242.239946 107,261 C141.981676,279.760054 205,289 205,289 L198.675445,282.675445 C198.675445,282.675445 141,275 110,258 C79,241 45,210 39,170 C33,130 37,100 54,67 C71,34 76,34 76,34 Z" id="Path-22"/>
                <path d="M165,34 C165,34 112,77 125,169 C130.629627,208.840437 161.018324,242.239946 196,261 C230.981676,279.760054 294,289 294,289 L287.675445,282.675445 C287.675445,282.675445 230,275 199,258 C168,241 134,210 128,170 C122,130 126,100 143,67 C160,34 165,34 165,34 Z" id="Path-22" transform="translate(208.473660, 161.500000) scale(-1, 1) translate(-208.473660, -161.500000) "/>
                <g id="Group">
                    <path d="M20,82 C15.9701451,82 11,91 10,97 C9,103 8,107 9,112 C10,117 20,100.457115 21,97.4571151 C22,94.4571151 24.0298549,82 20,82 Z" id="Path-23" transform="translate(15.495445, 97.467431) scale(1, -1) rotate(3.000000) translate(-15.495445, -97.467431) "/>
                    <path d="M18,104 C13.9701451,104 9,113 8,119 C7,125 6,129 7,134 C8,139 18,122.457115 19,119.457115 C20,116.457115 22.0298549,104 18,104 Z" id="Path-23" transform="translate(13.495445, 119.467431) scale(1, -1) rotate(3.000000) translate(-13.495445, -119.467431) "/>
                    <path d="M16,123 C11.9701451,123 7,132 6,138 C5,144 4,148 5,153 C6,158 16,141.457115 17,138.457115 C18,135.457115 20.0298549,123 16,123 Z" id="Path-23" transform="translate(11.495445, 138.467431) scale(1, -1) rotate(15.000000) translate(-11.495445, -138.467431) "/>
                    <path d="M75,1 C70.9701451,1 66,10 65,16 C64,22 63,26 64,31 C65,36 75,19.4571151 76,16.4571151 C77,13.4571151 79.0298549,1 75,1 Z" id="Path-23" transform="translate(70.495445, 16.467431) scale(1, -1) rotate(-38.000000) translate(-70.495445, -16.467431) "/>
                    <path d="M60,14 C55.9701451,14 51,23 50,29 C49,35 48,39 49,44 C50,49 60,32.4571151 61,29.4571151 C62,26.4571151 64.0298549,14 60,14 Z" id="Path-23" transform="translate(55.495445, 29.467431) scale(1, -1) rotate(-28.000000) translate(-55.495445, -29.467431) "/>
                    <path d="M47,29 C42.9701451,29 38,38 37,44 C36,50 35,54 36,59 C37,64 47,47.4571151 48,44.4571151 C49,41.4571151 51.0298549,29 47,29 Z" id="Path-23" transform="translate(42.495445, 44.467431) scale(1, -1) rotate(-25.000000) translate(-42.495445, -44.467431) "/>
                    <path d="M36,46 C31.9701451,46 27,55 26,61 C25,67 24,71 25,76 C26,81 36,64.4571151 37,61.4571151 C38,58.4571151 40.0298549,46 36,46 Z" id="Path-23" transform="translate(31.495445, 61.467431) scale(1, -1) rotate(-19.000000) translate(-31.495445, -61.467431) "/>
                    <path d="M26,64 C21.9701451,64 17,73 16,79 C15,85 14,89 15,94 C16,99 26,82.4571151 27,79.4571151 C28,76.4571151 30.0298549,64 26,64 Z" id="Path-23" transform="translate(21.495445, 79.467431) scale(1, -1) rotate(-9.000000) translate(-21.495445, -79.467431) "/>
                    <path d="M18,142 C13.9701451,142 9,151 8,157 C7,163 6,167 7,172 C8,177 18,160.457115 19,157.457115 C20,154.457115 22.0298549,142 18,142 Z" id="Path-23" transform="translate(13.495445, 157.467431) scale(1, -1) rotate(26.000000) translate(-13.495445, -157.467431) "/>
                    <path d="M19,160 C14.9701451,160 10,169 9,175 C8,181 7,185 8,190 C9,195 19,178.457115 20,175.457115 C21,172.457115 23.0298549,160 19,160 Z" id="Path-23" transform="translate(14.495445, 175.467431) scale(1, -1) rotate(34.000000) translate(-14.495445, -175.467431) "/>
                    <path d="M24,178 C19.9701451,178 15,187 14,193 C13,199 12,203 13,208 C14,213 24,196.457115 25,193.457115 C26,190.457115 28.0298549,178 24,178 Z" id="Path-23" transform="translate(19.495445, 193.467431) scale(1, -1) rotate(41.000000) translate(-19.495445, -193.467431) "/>
                    <path d="M32,196 C27.9701451,196 23,205 22,211 C21,217 20,221 21,226 C22,231 32,214.457115 33,211.457115 C34,208.457115 36.0298549,196 32,196 Z" id="Path-23" transform="translate(27.495445, 211.467431) scale(1, -1) rotate(50.000000) translate(-27.495445, -211.467431) "/>
                    <path d="M41,212 C36.9701451,212 32,221 31,227 C30,233 29,237 30,242 C31,247 41,230.457115 42,227.457115 C43,224.457115 45.0298549,212 41,212 Z" id="Path-23" transform="translate(36.495445, 227.467431) scale(1, -1) rotate(57.000000) translate(-36.495445, -227.467431) "/>
                    <path d="M52,227 C47.9701451,227 43,236 42,242 C41,248 40,252 41,257 C42,262 52,245.457115 53,242.457115 C54,239.457115 56.0298549,227 52,227 Z" id="Path-23" transform="translate(47.495445, 242.467431) scale(1, -1) rotate(65.000000) translate(-47.495445, -242.467431) "/>
                    <path d="M64,241 C59.9701451,241 55,250 54,256 C53,262 52,266 53,271 C54,276 64,259.457115 65,256.457115 C66,253.457115 68.0298549,241 64,241 Z" id="Path-23" transform="translate(59.495445, 256.467431) scale(1, -1) rotate(73.000000) translate(-59.495445, -256.467431) "/>
                    <path d="M78,253 C73.9701451,253 69,262 68,268 C67,274 66,278 67,283 C68,288 78,271.457115 79,268.457115 C80,265.457115 82.0298549,253 78,253 Z" id="Path-23" transform="translate(73.495445, 268.467431) scale(1, -1) rotate(83.000000) translate(-73.495445, -268.467431) "/>
                    <path d="M93,264 C88.9701451,264 84,273 83,279 C82,285 81,289 82,294 C83,299 93,282.457115 94,279.457115 C95,276.457115 97.0298549,264 93,264 Z" id="Path-23" transform="translate(88.495445, 279.467431) scale(1, -1) rotate(90.000000) translate(-88.495445, -279.467431) "/>
                    <path d="M111,272 C106.970145,272 102,281 101,287 C100,293 99,297 100,302 C101,307 111,290.457115 112,287.457115 C113,284.457115 115.029855,272 111,272 Z" id="Path-23" transform="translate(106.495445, 287.467431) scale(1, -1) rotate(95.000000) translate(-106.495445, -287.467431) "/>
                </g>
                <path d="M316.00911,82 C311.979256,82 307.00911,91 306.00911,97 C305.00911,103 304.00911,107 305.00911,112 C306.00911,117 316.00911,100.457115 317.00911,97.4571151 C318.00911,94.4571151 320.038965,82 316.00911,82 Z" id="Path-23" transform="translate(311.504555, 97.467431) scale(-1, -1) rotate(3.000000) translate(-311.504555, -97.467431) "/>
                <path d="M318.00911,104 C313.979256,104 309.00911,113 308.00911,119 C307.00911,125 306.00911,129 307.00911,134 C308.00911,139 318.00911,122.457115 319.00911,119.457115 C320.00911,116.457115 322.038965,104 318.00911,104 Z" id="Path-23" transform="translate(313.504555, 119.467431) scale(-1, -1) rotate(3.000000) translate(-313.504555, -119.467431) "/>
                <path d="M320.00911,123 C315.979256,123 311.00911,132 310.00911,138 C309.00911,144 308.00911,148 309.00911,153 C310.00911,158 320.00911,141.457115 321.00911,138.457115 C322.00911,135.457115 324.038965,123 320.00911,123 Z" id="Path-23" transform="translate(315.504555, 138.467431) scale(-1, -1) rotate(15.000000) translate(-315.504555, -138.467431) "/>
                <path d="M261.00911,1 C256.979256,1 252.00911,10 251.00911,16 C250.00911,22 249.00911,26 250.00911,31 C251.00911,36 261.00911,19.4571151 262.00911,16.4571151 C263.00911,13.4571151 265.038965,1 261.00911,1 Z" id="Path-23" transform="translate(256.504555, 16.467431) scale(-1, -1) rotate(-38.000000) translate(-256.504555, -16.467431) "/>
                <path d="M276.00911,14 C271.979256,14 267.00911,23 266.00911,29 C265.00911,35 264.00911,39 265.00911,44 C266.00911,49 276.00911,32.4571151 277.00911,29.4571151 C278.00911,26.4571151 280.038965,14 276.00911,14 Z" id="Path-23" transform="translate(271.504555, 29.467431) scale(-1, -1) rotate(-28.000000) translate(-271.504555, -29.467431) "/>
                <path d="M289.00911,29 C284.979256,29 280.00911,38 279.00911,44 C278.00911,50 277.00911,54 278.00911,59 C279.00911,64 289.00911,47.4571151 290.00911,44.4571151 C291.00911,41.4571151 293.038965,29 289.00911,29 Z" id="Path-23" transform="translate(284.504555, 44.467431) scale(-1, -1) rotate(-25.000000) translate(-284.504555, -44.467431) "/>
                <path d="M300.00911,46 C295.979256,46 291.00911,55 290.00911,61 C289.00911,67 288.00911,71 289.00911,76 C290.00911,81 300.00911,64.4571151 301.00911,61.4571151 C302.00911,58.4571151 304.038965,46 300.00911,46 Z" id="Path-23" transform="translate(295.504555, 61.467431) scale(-1, -1) rotate(-19.000000) translate(-295.504555, -61.467431) "/>
                <path d="M310.00911,64 C305.979256,64 301.00911,73 300.00911,79 C299.00911,85 298.00911,89 299.00911,94 C300.00911,99 310.00911,82.4571151 311.00911,79.4571151 C312.00911,76.4571151 314.038965,64 310.00911,64 Z" id="Path-23" transform="translate(305.504555, 79.467431) scale(-1, -1) rotate(-9.000000) translate(-305.504555, -79.467431) "/>
                <path d="M318.00911,142 C313.979256,142 309.00911,151 308.00911,157 C307.00911,163 306.00911,167 307.00911,172 C308.00911,177 318.00911,160.457115 319.00911,157.457115 C320.00911,154.457115 322.038965,142 318.00911,142 Z" id="Path-23" transform="translate(313.504555, 157.467431) scale(-1, -1) rotate(26.000000) translate(-313.504555, -157.467431) "/>
                <path d="M317.00911,160 C312.979256,160 308.00911,169 307.00911,175 C306.00911,181 305.00911,185 306.00911,190 C307.00911,195 317.00911,178.457115 318.00911,175.457115 C319.00911,172.457115 321.038965,160 317.00911,160 Z" id="Path-23" transform="translate(312.504555, 175.467431) scale(-1, -1) rotate(34.000000) translate(-312.504555, -175.467431) "/>
                <path d="M312.00911,178 C307.979256,178 303.00911,187 302.00911,193 C301.00911,199 300.00911,203 301.00911,208 C302.00911,213 312.00911,196.457115 313.00911,193.457115 C314.00911,190.457115 316.038965,178 312.00911,178 Z" id="Path-23" transform="translate(307.504555, 193.467431) scale(-1, -1) rotate(41.000000) translate(-307.504555, -193.467431) "/>
                <path d="M304.00911,196 C299.979256,196 295.00911,205 294.00911,211 C293.00911,217 292.00911,221 293.00911,226 C294.00911,231 304.00911,214.457115 305.00911,211.457115 C306.00911,208.457115 308.038965,196 304.00911,196 Z" id="Path-23" transform="translate(299.504555, 211.467431) scale(-1, -1) rotate(50.000000) translate(-299.504555, -211.467431) "/>
                <path d="M295.00911,212 C290.979256,212 286.00911,221 285.00911,227 C284.00911,233 283.00911,237 284.00911,242 C285.00911,247 295.00911,230.457115 296.00911,227.457115 C297.00911,224.457115 299.038965,212 295.00911,212 Z" id="Path-23" transform="translate(290.504555, 227.467431) scale(-1, -1) rotate(57.000000) translate(-290.504555, -227.467431) "/>
                <path d="M284.00911,227 C279.979256,227 275.00911,236 274.00911,242 C273.00911,248 272.00911,252 273.00911,257 C274.00911,262 284.00911,245.457115 285.00911,242.457115 C286.00911,239.457115 288.038965,227 284.00911,227 Z" id="Path-23" transform="translate(279.504555, 242.467431) scale(-1, -1) rotate(65.000000) translate(-279.504555, -242.467431) "/>
                <path d="M272.00911,241 C267.979256,241 263.00911,250 262.00911,256 C261.00911,262 260.00911,266 261.00911,271 C262.00911,276 272.00911,259.457115 273.00911,256.457115 C274.00911,253.457115 276.038965,241 272.00911,241 Z" id="Path-23" transform="translate(267.504555, 256.467431) scale(-1, -1) rotate(73.000000) translate(-267.504555, -256.467431) "/>
                <path d="M258.00911,253 C253.979256,253 249.00911,262 248.00911,268 C247.00911,274 246.00911,278 247.00911,283 C248.00911,288 258.00911,271.457115 259.00911,268.457115 C260.00911,265.457115 262.038965,253 258.00911,253 Z" id="Path-23" transform="translate(253.504555, 268.467431) scale(-1, -1) rotate(83.000000) translate(-253.504555, -268.467431) "/>
                <path d="M243.00911,264 C238.979256,264 234.00911,273 233.00911,279 C232.00911,285 231.00911,289 232.00911,294 C233.00911,299 243.00911,282.457115 244.00911,279.457115 C245.00911,276.457115 247.038965,264 243.00911,264 Z" id="Path-23" transform="translate(238.504555, 279.467431) scale(-1, -1) rotate(90.000000) translate(-238.504555, -279.467431) "/>
                <path d="M225.00911,272 C220.979256,272 216.00911,281 215.00911,287 C214.00911,293 213.00911,297 214.00911,302 C215.00911,307 225.00911,290.457115 226.00911,287.457115 C227.00911,284.457115 229.038965,272 225.00911,272 Z" id="Path-23" transform="translate(220.504555, 287.467431) scale(-1, -1) rotate(95.000000) translate(-220.504555, -287.467431) "/>
            </g>
            <polygon id="Path-24" fill="#1D1D1D" points="163.225904 48 66 91.4595971 66 201.178218 163.225904 239 260.451807 204.960396 260.451807 91.4595971"/>
            <path d="M146.943039,174.82896 L151.232719,174.3852 L151.528559,183.11248 C140.286583,184.690301 130.671879,185.4792 122.68416,185.4792 C112.033866,185.4792 104.490022,182.397564 100.0524,176.2342 C95.6147777,170.070836 93.3959999,160.480785 93.3959999,147.46376 C93.3959999,121.528324 103.70099,108.560801 124.31128,108.560801 C134.271276,108.560801 141.716508,111.3466 146.647199,116.918281 C151.577891,122.489962 154.043199,131.241808 154.043199,143.174081 L153.451519,151.60552 L104.63792,151.60552 C104.63792,159.790468 106.117105,165.855127 109.07552,169.79968 C112.033934,173.744233 117.18643,175.71648 124.53316,175.71648 C131.879889,175.71648 139.349775,175.420643 146.943039,174.82896 Z M142.949199,142.730321 C142.949199,133.657849 141.494667,127.248046 138.585559,123.500721 C135.676452,119.753395 130.943059,117.879761 124.38524,117.879761 C117.82742,117.879761 112.896803,119.852008 109.59324,123.796561 C106.289677,127.741114 104.588614,134.052304 104.49,142.730321 L142.949199,142.730321 Z M223.458078,132.375921 L223.458078,170.24344 C223.75392,173.892152 226.613678,176.061623 232.037438,176.75192 L231.593678,185.4792 C223.803186,185.4792 217.935751,183.506953 213.991198,179.5624 C205.115954,183.506953 196.240843,185.4792 187.365599,185.4792 C180.561245,185.4792 175.384097,183.556259 171.833999,179.71032 C168.283901,175.864381 166.508879,170.342089 166.508879,163.14328 C166.508879,155.944471 168.333207,150.644057 171.981919,147.24188 C175.63063,143.839703 181.350147,141.744191 189.140639,140.955281 L212.364078,138.736481 L212.364078,132.375921 C212.364078,127.346616 211.279343,123.747265 209.109838,121.577761 C206.940334,119.408257 203.981964,118.323521 200.234639,118.323521 C192.345533,118.323521 184.160708,118.816583 175.679919,119.802721 L171.094399,120.246481 L170.650639,111.815041 C181.49816,109.645537 191.112863,108.560801 199.495039,108.560801 C207.877214,108.560801 213.966526,110.483742 217.763158,114.329681 C221.559791,118.17562 223.458078,124.190973 223.458078,132.375921 Z M177.898719,162.5516 C177.898719,171.624072 181.645988,176.16024 189.140639,176.16024 C195.846379,176.16024 202.453406,175.026198 208.961918,172.75808 L212.364078,171.57472 L212.364078,147.16792 L190.471919,149.2388 C186.034297,149.633256 182.829395,150.915216 180.857119,153.08472 C178.884842,155.254225 177.898719,158.40982 177.898719,162.5516 Z" id="ea" fill="#FFFFFF"/>
        </g>
    </g>
</svg>