
<svg width="20px" height="8px" viewBox="0 0 9 18" version="1.1" xmlns="http://www.w3.org/2000/svg" xmlns:xlink="http://www.w3.org/1999/xlink">
    <!-- Generator: Sketch 48.1 (47250) - http://www.bohemiancoding.com/sketch -->
    <desc>Created with Sketch.</desc>
    <defs></defs>
    <g id="Page-1" stroke="none" stroke-width="1" fill="none" fill-rule="evenodd">
        <g id="github" transform="translate(-61.000000, -10.000000)" fill="#ffffff" fill-rule="nonzero">
            <g id="fb" transform="translate(61.000000, 10.000000)">
                <path d="M5.53597642,5.95255714 L8.59207075,5.95255714 L8.37891509,8.64514286 L5.53593396,8.64514286 L5.53593396,18 L1.94497642,18 L1.94497642,8.6451 L0.0284433962,8.6451 L0.0284433962,5.95251429 L1.94497642,5.95251429 L1.94497642,4.14291429 C1.94497642,3.3468 1.9657783,2.11594286 2.56207075,1.35381429 C3.19041509,0.548014286 4.05335377,0 5.53597642,0 C7.95251887,0 8.9714717,0.3339 8.9714717,0.3339 L8.49217925,3.09171429 C8.49217925,3.09171429 7.69398113,2.86735714 6.94859434,2.86735714 C6.20329245,2.86735714 5.53601887,3.1257 5.53601887,3.85007143 L5.53601887,5.95255714 L5.53597642,5.95255714 Z" id="Shape"></path>
            </g>
        </g>
    </g>
</svg>