
<svg width="126px" height="126px" viewBox="0 0 126 126" version="1.1" xmlns="http://www.w3.org/2000/svg" xmlns:xlink="http://www.w3.org/1999/xlink">
    <!-- Generator: Sketch 48.1 (47250) - http://www.bohemiancoding.com/sketch -->
    <desc>Created with Sketch.</desc>
    <defs></defs>
    <g id="Page-1" stroke="none" stroke-width="1" fill="none" fill-rule="evenodd">
        <g id="if_Ethereum_Bitcoin_Cryptocurrency1_transfer_money_2927586" transform="translate(2.000000, 2.000000)">
            <circle id="Oval" stroke="#A5A3A3" stroke-width="3" fill="#355A7A" fill-rule="nonzero" cx="91" cy="91" r="31"></circle>
            <circle id="Oval" stroke="#FFFFFF" stroke-width="2" stroke-linecap="round" cx="91" cy="91" r="24.951"></circle>
            <path d="M88.832,109.005 L88.832,104.576 C85.131,104.531 81.304,103.742 79.073,102.646 L80.603,99.707 C82.899,100.761 86.217,101.593 89.788,101.593 C94.317,101.593 97.379,99.795 97.379,97.295 C97.379,94.882 94.891,93.391 90.17,92.075 C83.665,90.321 79.647,88.304 79.647,84.487 C79.647,80.846 83.41,78.083 89.279,77.424 L89.279,72.995 L93.231,72.995 L93.231,77.249 C97.059,77.337 99.674,78.038 101.525,78.785 L99.931,81.68 C98.591,81.153 95.976,80.189 91.894,80.189 C86.981,80.189 85.132,82.207 85.132,83.961 C85.132,86.241 87.493,87.382 93.042,88.961 C99.612,90.804 102.928,93.084 102.928,96.988 C102.928,100.454 99.42,103.699 92.85,104.445 L92.85,109.006 L88.832,109.006 L88.832,109.005 Z" id="Shape" stroke="#FFFFFF" stroke-width="2" fill="#FFFFFF" fill-rule="nonzero"></path>
            <path d="M75.792,6.949 C75.744,7.547 76.198,8.068 76.796,8.116 L76.808,8.117 C80.987,8.47 85.129,9.446 88.947,11.157 C92.78,12.831 96.3,15.172 99.325,18.024 C100.832,19.437 102.263,20.975 103.488,22.611 C104.7,24.258 105.755,26.03 106.669,27.867 C108.019,30.658 109.022,33.611 109.673,36.638 L105.922,36.377 C104.959,36.31 104.295,37.305 104.712,38.171 L110.6,50.231 C111.029,51.098 112.226,51.181 112.76,50.381 L120.262,39.253 C120.801,38.46 120.275,37.375 119.312,37.308 L114.734,36.989 C113.568,33.169 112.019,29.496 110.02,26.065 C108.879,24.113 107.582,22.25 106.116,20.511 C104.618,18.788 103.054,17.204 101.332,15.757 C97.92,12.847 94.018,10.561 89.9,8.879 C85.767,7.233 81.385,6.234 76.961,5.932 C76.362,5.885 75.834,6.344 75.792,6.949 Z" id="Shape" stroke="#6D6D6D" stroke-width="3" fill="#989797" fill-rule="nonzero"></path>
            <path d="M46.474,115.268 C46.522,114.67 46.068,114.149 45.47,114.101 L45.458,114.1 C41.279,113.747 37.137,112.771 33.319,111.06 C29.486,109.386 25.966,107.045 22.941,104.193 C21.434,102.78 20.003,101.242 18.778,99.606 C17.566,97.959 16.511,96.187 15.597,94.35 C14.247,91.559 13.244,88.606 12.593,85.579 L16.344,85.84 C17.307,85.907 17.971,84.912 17.554,84.046 L11.666,71.986 C11.237,71.119 10.04,71.036 9.506,71.836 L2.005,82.964 C1.466,83.757 1.992,84.842 2.955,84.909 L7.533,85.228 C8.699,89.048 10.248,92.721 12.247,96.152 C13.388,98.104 14.685,99.967 16.151,101.706 C17.649,103.429 19.213,105.013 20.935,106.46 C24.347,109.37 28.249,111.656 32.367,113.338 C36.5,114.984 40.882,115.983 45.306,116.285 C45.903,116.332 46.431,115.873 46.474,115.268 Z" id="Shape" stroke="#6D6D6D" stroke-width="3" fill="#989797" fill-rule="nonzero"></path>
            <circle id="Oval" stroke="#A5A3A3" stroke-width="3" fill="#355A7A" fill-rule="nonzero" cx="31" cy="31" r="31"></circle>
            <circle id="Oval" stroke="#FFFFFF" stroke-width="2" fill="#355A7A" fill-rule="nonzero" stroke-linecap="round" cx="31" cy="31" r="24.951"></circle>
            <g id="Group" transform="translate(20.000000, 14.000000)" fill-rule="nonzero">
                <polygon id="Shape" fill="#4D4D4D" points="10.99 23.387 10.988 23.388 10.988 23.386"></polygon>
                <polygon id="Shape" fill="#FFFFFF" points="21.271 17.31 10.992 23.386 10.99 23.387 10.988 23.386 0.708 17.31 10.988 0.253 10.989 0.25 10.991 0.253"></polygon>
                <polygon id="Shape" fill="#4D4D4D" points="10.992 23.386 10.992 23.388 10.99 23.387"></polygon>
                <polygon id="Shape" fill="#FFFFFF" points="21.292 19.259 11.001 33.75 0.711 19.259 11.001 25.335"></polygon>
            </g>
        </g>
    </g>
</svg>