
<svg width="23px" height="21px" viewBox="0 0 23 21" version="1.1" xmlns="http://www.w3.org/2000/svg" xmlns:xlink="http://www.w3.org/1999/xlink">
    <!-- Generator: Sketch 48.1 (47250) - http://www.bohemiancoding.com/sketch -->
    <desc>Created with Sketch.</desc>
    <defs></defs>
    <g id="Page-1" stroke="none" stroke-width="1" fill="none" fill-rule="evenodd">
        <g id="github" transform="translate(-13.000000, 0.000000)" fill="#ffffff" fill-rule="nonzero">
            <path d="M24.1708048,0.393513043 C18.1750307,0.393513043 13.3130798,5.12902573 13.3130798,10.9710389 C13.3130798,15.6444518 16.4241729,19.6093437 20.7382561,21.0080479 C21.2808337,21.1059216 21.4801345,20.7785022 21.4801345,20.4991823 C21.4801345,20.24709 21.4701276,19.4136823 21.4654107,18.5298133 C18.4447766,19.1697498 17.8074198,17.2818062 17.8074198,17.2818062 C17.313466,16.059266 16.6018728,15.7340799 16.6018728,15.7340799 C15.6166544,15.0775663 16.6761532,15.0910942 16.6761532,15.0910942 C17.7663341,15.1656912 18.3405195,16.1812752 18.3405195,16.1812752 C19.3088981,17.7982303 20.880513,17.3307216 21.5001924,17.0604632 C21.5976607,16.3768937 21.8789123,15.910115 22.1895235,15.6459979 C19.7778566,15.3786169 17.24258,14.4715571 17.24258,10.4185402 C17.24258,9.26381154 17.6667939,8.32016185 18.361415,7.57938846 C18.2486939,7.31286637 17.8769833,6.23711517 18.4665978,4.78004756 C18.4665978,4.78004756 19.3784175,4.49591766 21.4531114,5.86443088 C22.3192607,5.6300323 23.2481407,5.51248944 24.1708489,5.50840958 C25.0935131,5.51248944 26.0230983,5.6300323 26.8907906,5.86443088 C28.9632362,4.49591766 29.8736893,4.78004756 29.8736893,4.78004756 C30.4646705,6.23711517 30.0929598,7.31286637 29.9802387,7.57938846 C30.6764468,8.32016185 31.0976631,9.26376859 31.0976631,10.4185402 C31.0976631,14.4813058 28.5576696,15.3756965 26.139831,15.6376234 C26.5292632,15.9659017 26.876199,16.6095744 26.876199,17.5963847 C26.876199,19.011666 26.8637675,20.1507624 26.8637675,20.4991823 C26.8637675,20.7807354 27.0591448,21.1105597 27.6094371,21.0067166 C31.9213161,19.6064664 35.0284857,15.6429487 35.0284857,10.9710389 C35.0284858,5.12902573 30.1671962,0.393513043 24.1708048,0.393513043 Z" id="Shape"></path>
        </g>
    </g>
</svg>