
<svg width="124px" height="124px" viewBox="0 0 124 124" version="1.1" xmlns="http://www.w3.org/2000/svg" xmlns:xlink="http://www.w3.org/1999/xlink">
    <!-- Generator: Sketch 48.1 (47250) - http://www.bohemiancoding.com/sketch -->
    <desc>Created with Sketch.</desc>
    <defs></defs>
    <g id="Page-1" stroke="none" stroke-width="1" fill="none" fill-rule="evenodd">
        <g id="if_Ethereum_Bitcoin_Cryptocurrency1_blockchain_crypto_mining_2927596" transform="translate(2.000000, 2.000000)">
            <g id="Group" transform="translate(91.000000, 33.000000)" stroke="#A5A3A3" stroke-linecap="round" stroke-width="4">
                <path d="M7.152,27.5 L17.152,27.5" id="Shape"></path>
                <g id="Shape">
                    <polyline points="0.848 48.481 12.152 48.481 12.152 54.519 17.152 54.519"></polyline>
                    <polyline points="0.848 6.519 12.152 6.519 12.152 0.481 17.152 0.481"></polyline>
                </g>
            </g>
            <g id="Group" transform="translate(11.000000, 33.000000)" stroke="#A5A3A3" stroke-linecap="round" stroke-width="4">
                <path d="M10.848,27.5 L0.848,27.5" id="Shape"></path>
                <g id="Shape">
                    <polyline points="17.152 48.481 5.848 48.481 5.848 54.519 0.848 54.519"></polyline>
                    <polyline points="17.152 6.519 5.848 6.519 5.848 0.481 0.848 0.481"></polyline>
                </g>
            </g>
            <circle id="Oval" stroke="#C2C2C2" stroke-width="4" fill="#355A7A" fill-rule="nonzero" cx="114.5" cy="33" r="5.5"></circle>
            <circle id="Oval" stroke="#C2C2C2" stroke-width="4" fill="#355A7A" fill-rule="nonzero" cx="114.5" cy="60.5" r="5.5"></circle>
            <circle id="Oval" stroke="#C2C2C2" stroke-width="4" fill="#355A7A" fill-rule="nonzero" cx="114.5" cy="88" r="5.5"></circle>
            <circle id="Oval" stroke="#C2C2C2" stroke-width="4" fill="#355A7A" fill-rule="nonzero" cx="5.5" cy="33" r="5.5"></circle>
            <circle id="Oval" stroke="#C2C2C2" stroke-width="4" fill="#355A7A" fill-rule="nonzero" cx="5.5" cy="60.5" r="5.5"></circle>
            <circle id="Oval" stroke="#C2C2C2" stroke-width="4" fill="#355A7A" fill-rule="nonzero" cx="5.5" cy="88" r="5.5"></circle>
            <path d="M60,22.5 L60,12.5" id="Shape" stroke="#A5A3A3" stroke-width="4" stroke-linecap="round"></path>
            <g id="Group" transform="translate(32.000000, 12.000000)" stroke="#A5A3A3" stroke-linecap="round" stroke-width="4">
                <polyline id="Shape" points="48.981 16.803 48.981 5.5 55.019 5.5 55.019 0.5"></polyline>
                <polyline id="Shape" points="7.019 16.803 7.019 5.5 0.981 5.5 0.981 0.5"></polyline>
            </g>
            <path d="M60,97.803 L60,107.803" id="Shape" stroke="#A5A3A3" stroke-width="4" stroke-linecap="round"></path>
            <g id="Group" transform="translate(32.000000, 91.000000)" stroke="#A5A3A3" stroke-linecap="round" stroke-width="4">
                <polyline id="Shape" points="48.981 0.5 48.981 11.803 55.019 11.803 55.019 16.803"></polyline>
                <polyline id="Shape" points="7.019 0.5 7.019 11.803 0.981 11.803 0.981 16.803"></polyline>
            </g>
            <circle id="Oval" stroke="#C2C2C2" stroke-width="4" fill="#355A7A" fill-rule="nonzero" cx="87.5" cy="6" r="5.5"></circle>
            <circle id="Oval" stroke="#C2C2C2" stroke-width="4" fill="#355A7A" fill-rule="nonzero" cx="60" cy="6" r="5.5"></circle>
            <circle id="Oval" stroke="#C2C2C2" stroke-width="4" fill="#355A7A" fill-rule="nonzero" cx="33.5" cy="6" r="5.5"></circle>
            <circle id="Oval" stroke="#C2C2C2" stroke-width="4" fill="#355A7A" fill-rule="nonzero" cx="87.5" cy="114" r="5.5"></circle>
            <circle id="Oval" stroke="#C2C2C2" stroke-width="4" fill="#355A7A" fill-rule="nonzero" cx="60" cy="114" r="5.5"></circle>
            <circle id="Oval" stroke="#C2C2C2" stroke-width="4" fill="#355A7A" fill-rule="nonzero" cx="33.5" cy="114" r="5.5"></circle>
            <circle id="Oval" stroke="#989797" stroke-width="4" fill="#355A7A" fill-rule="nonzero" cx="60" cy="60" r="31"></circle>
            <circle id="Oval" stroke="#FFFFFF" stroke-width="2" fill="#355A7A" fill-rule="nonzero" stroke-linecap="round" cx="60" cy="60" r="24.951"></circle>
            <g id="Group" transform="translate(49.000000, 43.000000)" fill-rule="nonzero">
                <polygon id="Shape" fill="#4D4D4D" points="10.99 23.387 10.988 23.388 10.988 23.386"></polygon>
                <polygon id="Shape" fill="#FFFFFF" points="21.271 17.31 10.992 23.386 10.99 23.387 10.988 23.386 0.708 17.31 10.988 0.253 10.989 0.25 10.991 0.253"></polygon>
                <polygon id="Shape" fill="#4D4D4D" points="10.992 23.386 10.992 23.388 10.99 23.387"></polygon>
                <polygon id="Shape" fill="#FFFFFF" points="21.292 19.259 11.001 33.75 0.711 19.259 11.001 25.335"></polygon>
            </g>
        </g>
    </g>
</svg>