
<svg width="89px" height="89px" viewBox="0 0 89 89" version="1.1" xmlns="http://www.w3.org/2000/svg" xmlns:xlink="http://www.w3.org/1999/xlink">
    <!-- Generator: Sketch 43.2 (39069) - http://www.bohemiancoding.com/sketch -->
    <desc>Created with Sketch.</desc>
    <defs></defs>
    <g id="Page-1" stroke="none" stroke-width="1" fill="none" fill-rule="evenodd">
        <g id="Group-11">
            <circle id="Oval-20" fill="#CECDCD" cx="44.5" cy="44.5" r="44.5"></circle>
            <path d="M65.1320529,87.1946825 C65.1320529,87.1946825 85.9175095,70.7515006 83.997055,64.990137 C83.2670665,62.8001715 92.8934165,16.115137 87.1320529,14.1946825 C81.3706893,12.2742279 65.1320529,25.1946825 65.1320529,25.1946825 C65.1320529,25.1946825 58.811267,31.4758215 55.1320529,41.1946825 C51.4528389,50.9135434 51.6260335,58.4151419 53.2697822,64.990137 C57.1106913,80.3537734 65.1320529,87.1946825 65.1320529,87.1946825 Z" id="Path-8" fill="#3D3D3D" opacity="0.0680387127" transform="translate(70.566026, 50.597341) scale(-1, -1) translate(-70.566026, -50.597341) "></path>
            <circle id="Oval-20" fill="#FFFFFF" cx="27.4244186" cy="28.494186" r="14.6608527"></circle>
            <path d="M20,41 C20,41 30,34 29,31 C28.6198877,29.859663 30,15 27,14 C24,13 18,17 18,17 C18,17 11,23 13,31 C15,39 20,41 20,41 Z" id="Path-8" fill="#3D3D3D" opacity="0.0602262127"></path>
            <path d="M26,85 C26,85 35,56 42,42 C49,28 66,6 66,6" id="Path-10" stroke="#FFFCFC"></path>
            <path d="M36,88 C36,88 45,59 52,45 C59,31 74,11 74,11" id="Path-10" stroke="#FFFCFC"></path>
            <path d="M48,89 C48,89 57,60 64,46 C71,32 81,19 81,19" id="Path-10" stroke="#FFFCFC"></path>
        </g>
    </g>
</svg>
