
<svg width="18px" height="16px" viewBox="0 0 18 16" version="1.1" xmlns="http://www.w3.org/2000/svg" xmlns:xlink="http://www.w3.org/1999/xlink">
    <!-- Generator: Sketch 48.1 (47250) - http://www.bohemiancoding.com/sketch -->
    <desc>Created with Sketch.</desc>
    <defs></defs>
    <g id="Page-1" stroke="none" stroke-width="1" fill="none" fill-rule="evenodd">
        <g id="github" transform="translate(-31.000000, -26.000000)" fill="#ffffff" fill-rule="nonzero">
            <g id="medium" transform="translate(31.000000, 26.000000)">
                <g id="Group">
                    <path d="M12.3647294,13.1439636 L17.6409882,15.8615273 C17.6503412,15.8663273 17.6588118,15.87 17.6661529,15.8729818 C17.6670353,15.8651273 17.6676353,15.8554909 17.6676353,15.8446545 L17.6676353,4.2652 L12.3647294,13.1439636 Z" id="Shape"></path>
                    <polygon id="Shape" points="12.0328941 0.363345455 8.28914118 6.60410909 11.8895294 12.6326545 17.5274118 3.19370909"></polygon>
                    <polygon id="Shape" points="6.11114118 9.92589091 10.9961647 12.4420727 6.11114118 4.264"></polygon>
                    <path d="M7.05882353e-05,12.8955273 C7.05882353e-05,12.9805818 0.0811411765,13.1156364 0.154870588,13.1536 L5.41969412,15.8657818 C5.42936471,15.8705818 5.43783529,15.8748364 5.44514118,15.8772364 C5.44605882,15.8693818 5.44662353,15.8597455 5.44662353,15.8488727 L5.44662353,3.26603636 L0.000352941176,0.4604 L7.05882353e-05,12.8955273 Z" id="Shape"></path>
                </g>
            </g>
        </g>
    </g>
</svg>