<svg width="100%" height="100%" viewBox="0 0 88 74" version="1.1" xmlns="http://www.w3.org/2000/svg" xmlns:xlink="http://www.w3.org/1999/xlink">
<title>Group</title>
<desc>Created using Figma</desc>
<g id="Canvas" transform="translate(784 -3885)">
<g id="Group">
<g id="Rectangle 93">
<use xlink:href="#path0_fill" transform="translate(-783 3890.02)" fill="#F2F2F2"/>
<mask id="mask0_outline_out">
<rect id="mask0_outline_inv" fill="white" x="-1" y="-1" width="45" height="31" transform="translate(-783 3890.02)"/>
<use xlink:href="#path0_fill" fill="black" transform="translate(-783 3890.02)"/>
</mask>
<g mask="url(#mask0_outline_out)">
<use xlink:href="#path1_stroke_2x" transform="translate(-783 3890.02)"/>
</g>
</g>
<g id="Vector 112">
<use xlink:href="#path2_fill" transform="translate(-779.217 3892.53)" fill="#FFFFFF"/>
</g>
<g id="Vector 112">
<use xlink:href="#path2_fill" transform="translate(-732.565 3931.41)" fill="#BDBDBD"/>
</g>
<g id="Ellipse 18">
<use xlink:href="#path3_fill" transform="translate(-743.913 3900.05)" fill="#FFFFFF"/>
<mask id="mask1_outline_ins">
<use xlink:href="#path3_fill" fill="white" transform="translate(-743.913 3900.05)"/>
</mask>
<g mask="url(#mask1_outline_ins)">
<use xlink:href="#path4_stroke_2x" transform="translate(-743.913 3900.05)"/>
</g>
</g>
<g id="Ellipse 18">
<use xlink:href="#path3_fill" transform="translate(-765.348 3915.1)" fill="#FFFFFF"/>
<mask id="mask2_outline_ins">
<use xlink:href="#path3_fill" fill="white" transform="translate(-765.348 3915.1)"/>
</mask>
<g mask="url(#mask2_outline_ins)">
<use xlink:href="#path4_stroke_2x" transform="translate(-765.348 3915.1)"/>
</g>
</g>
<g id="Vector 115">
<use xlink:href="#path5_stroke" transform="translate(-762.826 3917.61)" fill="#219653"/>
</g>
<g id="Vector 115">
<use xlink:href="#path5_stroke" transform="translate(-741.391 3902.56)" fill="#219653"/>
</g>
<g id="Vector 116">
<use xlink:href="#path6_stroke" transform="translate(-761.565 3923.88)"/>
</g>
<g id="Rectangle 94">
<use xlink:href="#path7_fill" transform="translate(-726.261 3956.49)" fill="#219653"/>
</g>
<g id="Vector 119">
<use xlink:href="#path8_stroke" transform="matrix(1 -4.34815e-08 4.39425e-08 1 -767.87 3885)" fill="#F2F2F2"/>
</g>
<g id="Vector 119">
<use xlink:href="#path8_stroke" transform="matrix(1 -4.34815e-08 4.39425e-08 1 -757.783 3885)" fill="#F2F2F2"/>
</g>
</g>
</g>
<defs>
<path id="path0_fill" d="M 0 0L 42.8696 0L 42.8696 28.8475L 0 28.8475L 0 0Z"/>
<path id="path1_stroke_2x" d="M 0 0L 0 -0.5L -0.5 -0.5L -0.5 0L 0 0ZM 42.8696 0L 43.3696 0L 43.3696 -0.5L 42.8696 -0.5L 42.8696 0ZM 42.8696 28.8475L 42.8696 29.3475L 43.3696 29.3475L 43.3696 28.8475L 42.8696 28.8475ZM 0 28.8475L -0.5 28.8475L -0.5 29.3475L 0 29.3475L 0 28.8475ZM -0.5 0L -0.5 1.03027L 0.5 1.03027L 0.5 0L -0.5 0ZM -0.5 3.0908L -0.5 5.15133L 0.5 5.15133L 0.5 3.0908L -0.5 3.0908ZM -0.5 7.21186L -0.5 9.2724L 0.5 9.2724L 0.5 7.21186L -0.5 7.21186ZM -0.5 11.3329L -0.5 13.3935L 0.5 13.3935L 0.5 11.3329L -0.5 11.3329ZM -0.5 15.454L -0.5 17.5145L 0.5 17.5145L 0.5 15.454L -0.5 15.454ZM -0.5 19.5751L -0.5 21.6356L 0.5 21.6356L 0.5 19.5751L -0.5 19.5751ZM -0.5 23.6961L -0.5 25.7567L 0.5 25.7567L 0.5 23.6961L -0.5 23.6961ZM -0.5 27.8172L -0.5 28.8475L 0.5 28.8475L 0.5 27.8172L -0.5 27.8172ZM 0 29.3475L 0.974308 29.3475L 0.974308 28.3475L 0 28.3475L 0 29.3475ZM 2.92292 29.3475L 4.87154 29.3475L 4.87154 28.3475L 2.92292 28.3475L 2.92292 29.3475ZM 6.82016 29.3475L 8.76877 29.3475L 8.76877 28.3475L 6.82016 28.3475L 6.82016 29.3475ZM 10.7174 29.3475L 12.666 29.3475L 12.666 28.3475L 10.7174 28.3475L 10.7174 29.3475ZM 14.6146 29.3475L 16.5632 29.3475L 16.5632 28.3475L 14.6146 28.3475L 14.6146 29.3475ZM 18.5119 29.3475L 20.4605 29.3475L 20.4605 28.3475L 18.5119 28.3475L 18.5119 29.3475ZM 22.4091 29.3475L 24.3577 29.3475L 24.3577 28.3475L 22.4091 28.3475L 22.4091 29.3475ZM 26.3063 29.3475L 28.2549 29.3475L 28.2549 28.3475L 26.3063 28.3475L 26.3063 29.3475ZM 30.2036 29.3475L 32.1522 29.3475L 32.1522 28.3475L 30.2036 28.3475L 30.2036 29.3475ZM 34.1008 29.3475L 36.0494 29.3475L 36.0494 28.3475L 34.1008 28.3475L 34.1008 29.3475ZM 37.998 29.3475L 39.9466 29.3475L 39.9466 28.3475L 37.998 28.3475L 37.998 29.3475ZM 41.8952 29.3475L 42.8696 29.3475L 42.8696 28.3475L 41.8952 28.3475L 41.8952 29.3475ZM 43.3696 28.8475L 43.3696 27.8172L 42.3696 27.8172L 42.3696 28.8475L 43.3696 28.8475ZM 43.3696 25.7567L 43.3696 23.6961L 42.3696 23.6961L 42.3696 25.7567L 43.3696 25.7567ZM 43.3696 21.6356L 43.3696 19.5751L 42.3696 19.5751L 42.3696 21.6356L 43.3696 21.6356ZM 43.3696 17.5145L 43.3696 15.454L 42.3696 15.454L 42.3696 17.5145L 43.3696 17.5145ZM 43.3696 13.3935L 43.3696 11.3329L 42.3696 11.3329L 42.3696 13.3935L 43.3696 13.3935ZM 43.3696 9.2724L 43.3696 7.21186L 42.3696 7.21186L 42.3696 9.2724L 43.3696 9.2724ZM 43.3696 5.15133L 43.3696 3.0908L 42.3696 3.0908L 42.3696 5.15133L 43.3696 5.15133ZM 43.3696 1.03026L 43.3696 0L 42.3696 0L 42.3696 1.03026L 43.3696 1.03026ZM 42.8696 -0.5L 41.8953 -0.5L 41.8953 0.5L 42.8696 0.5L 42.8696 -0.5ZM 39.9466 -0.5L 37.998 -0.5L 37.998 0.5L 39.9466 0.5L 39.9466 -0.5ZM 36.0494 -0.5L 34.1008 -0.5L 34.1008 0.5L 36.0494 0.5L 36.0494 -0.5ZM 32.1522 -0.5L 30.2036 -0.5L 30.2036 0.5L 32.1522 0.5L 32.1522 -0.5ZM 28.2549 -0.5L 26.3063 -0.5L 26.3063 0.5L 28.2549 0.5L 28.2549 -0.5ZM 24.3577 -0.5L 22.4091 -0.5L 22.4091 0.5L 24.3577 0.5L 24.3577 -0.5ZM 20.4605 -0.5L 18.5119 -0.5L 18.5119 0.5L 20.4605 0.5L 20.4605 -0.5ZM 16.5632 -0.5L 14.6146 -0.5L 14.6146 0.5L 16.5632 0.5L 16.5632 -0.5ZM 12.666 -0.5L 10.7174 -0.5L 10.7174 0.5L 12.666 0.5L 12.666 -0.5ZM 8.76878 -0.5L 6.82016 -0.5L 6.82016 0.5L 8.76878 0.5L 8.76878 -0.5ZM 4.87155 -0.5L 2.92293 -0.5L 2.92293 0.5L 4.87155 0.5L 4.87155 -0.5ZM 0.974315 -0.5L 0 -0.5L 0 0.5L 0.974315 0.5L 0.974315 -0.5ZM 0 0L 0 -1L -1 -1L -1 0L 0 0ZM 42.8696 0L 43.8696 0L 43.8696 -1L 42.8696 -1L 42.8696 0ZM 42.8696 28.8475L 42.8696 29.8475L 43.8696 29.8475L 43.8696 28.8475L 42.8696 28.8475ZM 0 28.8475L -1 28.8475L -1 29.8475L 0 29.8475L 0 28.8475ZM -1 0L -1 1.03027L 1 1.03027L 1 0L -1 0ZM -1 3.0908L -1 5.15133L 1 5.15133L 1 3.0908L -1 3.0908ZM -1 7.21186L -1 9.2724L 1 9.2724L 1 7.21186L -1 7.21186ZM -1 11.3329L -1 13.3935L 1 13.3935L 1 11.3329L -1 11.3329ZM -1 15.454L -1 17.5145L 1 17.5145L 1 15.454L -1 15.454ZM -1 19.5751L -1 21.6356L 1 21.6356L 1 19.5751L -1 19.5751ZM -1 23.6961L -1 25.7567L 1 25.7567L 1 23.6961L -1 23.6961ZM -1 27.8172L -1 28.8475L 1 28.8475L 1 27.8172L -1 27.8172ZM 0 29.8475L 0.974308 29.8475L 0.974308 27.8475L 0 27.8475L 0 29.8475ZM 2.92292 29.8475L 4.87154 29.8475L 4.87154 27.8475L 2.92292 27.8475L 2.92292 29.8475ZM 6.82016 29.8475L 8.76877 29.8475L 8.76877 27.8475L 6.82016 27.8475L 6.82016 29.8475ZM 10.7174 29.8475L 12.666 29.8475L 12.666 27.8475L 10.7174 27.8475L 10.7174 29.8475ZM 14.6146 29.8475L 16.5632 29.8475L 16.5632 27.8475L 14.6146 27.8475L 14.6146 29.8475ZM 18.5119 29.8475L 20.4605 29.8475L 20.4605 27.8475L 18.5119 27.8475L 18.5119 29.8475ZM 22.4091 29.8475L 24.3577 29.8475L 24.3577 27.8475L 22.4091 27.8475L 22.4091 29.8475ZM 26.3063 29.8475L 28.2549 29.8475L 28.2549 27.8475L 26.3063 27.8475L 26.3063 29.8475ZM 30.2036 29.8475L 32.1522 29.8475L 32.1522 27.8475L 30.2036 27.8475L 30.2036 29.8475ZM 34.1008 29.8475L 36.0494 29.8475L 36.0494 27.8475L 34.1008 27.8475L 34.1008 29.8475ZM 37.998 29.8475L 39.9466 29.8475L 39.9466 27.8475L 37.998 27.8475L 37.998 29.8475ZM 41.8952 29.8475L 42.8696 29.8475L 42.8696 27.8475L 41.8952 27.8475L 41.8952 29.8475ZM 43.8696 28.8475L 43.8696 27.8172L 41.8696 27.8172L 41.8696 28.8475L 43.8696 28.8475ZM 43.8696 25.7567L 43.8696 23.6961L 41.8696 23.6961L 41.8696 25.7567L 43.8696 25.7567ZM 43.8696 21.6356L 43.8696 19.5751L 41.8696 19.5751L 41.8696 21.6356L 43.8696 21.6356ZM 43.8696 17.5145L 43.8696 15.454L 41.8696 15.454L 41.8696 17.5145L 43.8696 17.5145ZM 43.8696 13.3935L 43.8696 11.3329L 41.8696 11.3329L 41.8696 13.3935L 43.8696 13.3935ZM 43.8696 9.2724L 43.8696 7.21186L 41.8696 7.21186L 41.8696 9.2724L 43.8696 9.2724ZM 43.8696 5.15133L 43.8696 3.0908L 41.8696 3.0908L 41.8696 5.15133L 43.8696 5.15133ZM 43.8696 1.03026L 43.8696 0L 41.8696 0L 41.8696 1.03026L 43.8696 1.03026ZM 42.8696 -1L 41.8953 -1L 41.8953 1L 42.8696 1L 42.8696 -1ZM 39.9466 -1L 37.998 -1L 37.998 1L 39.9466 1L 39.9466 -1ZM 36.0494 -1L 34.1008 -1L 34.1008 1L 36.0494 1L 36.0494 -1ZM 32.1522 -1L 30.2036 -1L 30.2036 1L 32.1522 1L 32.1522 -1ZM 28.2549 -1L 26.3063 -1L 26.3063 1L 28.2549 1L 28.2549 -1ZM 24.3577 -1L 22.4091 -1L 22.4091 1L 24.3577 1L 24.3577 -1ZM 20.4605 -1L 18.5119 -1L 18.5119 1L 20.4605 1L 20.4605 -1ZM 16.5632 -1L 14.6146 -1L 14.6146 1L 16.5632 1L 16.5632 -1ZM 12.666 -1L 10.7174 -1L 10.7174 1L 12.666 1L 12.666 -1ZM 8.76878 -1L 6.82016 -1L 6.82016 1L 8.76878 1L 8.76878 -1ZM 4.87155 -1L 2.92293 -1L 2.92293 1L 4.87155 1L 4.87155 -1ZM 0.974315 -1L 0 -1L 0 1L 0.974315 1L 0.974315 -1Z"/>
<path id="path2_fill" d="M 30.3085 0L 6.66299 0L 0 11.9153L 6.66299 23.8305L 30.3085 23.8305L 36.5652 11.9153L 30.3085 0Z"/>
<path id="path3_fill" d="M 7.56522 3.76271C 7.56522 5.8408 5.87169 7.52542 3.78261 7.52542C 1.69353 7.52542 0 5.8408 0 3.76271C 0 1.68462 1.69353 0 3.78261 0C 5.87169 0 7.56522 1.68462 7.56522 3.76271Z"/>
<path id="path4_stroke_2x" d="M 7.06522 3.76271C 7.06522 5.56217 5.59803 7.02542 3.78261 7.02542L 3.78261 8.02542C 6.14534 8.02542 8.06522 6.11943 8.06522 3.76271L 7.06522 3.76271ZM 3.78261 7.02542C 1.96718 7.02542 0.5 5.56217 0.5 3.76271L -0.5 3.76271C -0.5 6.11943 1.41988 8.02542 3.78261 8.02542L 3.78261 7.02542ZM 0.5 3.76271C 0.5 1.96325 1.96718 0.5 3.78261 0.5L 3.78261 -0.5C 1.41988 -0.5 -0.5 1.406 -0.5 3.76271L 0.5 3.76271ZM 3.78261 0.5C 5.59803 0.5 7.06522 1.96325 7.06522 3.76271L 8.06522 3.76271C 8.06522 1.406 6.14534 -0.5 3.78261 -0.5L 3.78261 0.5Z"/>
<path id="path5_stroke" d="M 1.01087 0L 1.01087 1.25424L 1.51087 1.25424L 1.51087 0L 1.01087 0ZM 1.01087 1.25424L 1.01087 2.50847L 1.51087 2.50847L 1.51087 1.25424L 1.01087 1.25424ZM 1.26087 1.00424L 0 1.00424L 0 1.50424L 1.26087 1.50424L 1.26087 1.00424ZM 0 1.50424L 2.52174 1.50424L 2.52174 1.00424L 0 1.00424L 0 1.50424Z"/>
<path id="path6_stroke" d="M 0 18.8136L -0.5 18.8136L -0.5 19.3136L 0 19.3136L 0 18.8136ZM -0.5 0L -0.5 0.940678L 0.5 0.940678L 0.5 0L -0.5 0ZM -0.5 2.82203L -0.5 4.70339L 0.5 4.70339L 0.5 2.82203L -0.5 2.82203ZM -0.5 6.58475L -0.5 8.4661L 0.5 8.4661L 0.5 6.58475L -0.5 6.58475ZM -0.5 10.3475L -0.5 12.2288L 0.5 12.2288L 0.5 10.3475L -0.5 10.3475ZM -0.5 14.1102L -0.5 15.9915L 0.5 15.9915L 0.5 14.1102L -0.5 14.1102ZM -0.5 17.8729L -0.5 18.8136L 0.5 18.8136L 0.5 17.8729L -0.5 17.8729ZM 0 19.3136L 1.03571 19.3136L 1.03571 18.3136L 0 18.3136L 0 19.3136ZM 3.10714 19.3136L 5.17857 19.3136L 5.17857 18.3136L 3.10714 18.3136L 3.10714 19.3136ZM 7.25 19.3136L 9.32143 19.3136L 9.32143 18.3136L 7.25 18.3136L 7.25 19.3136ZM 11.3929 19.3136L 13.4643 19.3136L 13.4643 18.3136L 11.3929 18.3136L 11.3929 19.3136ZM 15.5357 19.3136L 17.6071 19.3136L 17.6071 18.3136L 15.5357 18.3136L 15.5357 19.3136ZM 19.6786 19.3136L 21.75 19.3136L 21.75 18.3136L 19.6786 18.3136L 19.6786 19.3136ZM 23.8214 19.3136L 25.8929 19.3136L 25.8929 18.3136L 23.8214 18.3136L 23.8214 19.3136ZM 27.9643 19.3136L 29 19.3136L 29 18.3136L 27.9643 18.3136L 27.9643 19.3136Z"/>
<path id="path7_fill" d="M 0 0L 5.04348 0L 5.04348 2.50847L 0 2.50847L 0 0Z"/>
<path id="path8_stroke" d="M -0.125 0L -0.125 5.01695L 0.125 5.01695L 0.125 0L -0.125 0Z"/>
</defs>
</svg>
