
<svg width="100%" height="100%" viewBox="0 0 19433 18223" version="1.1" xmlns="http://www.w3.org/2000/svg" xmlns:xlink="http://www.w3.org/1999/xlink">
    <!-- Generator: Sketch 48.1 (47250) - http://www.bohemiancoding.com/sketch -->
    <desc>Created with Sketch.</desc>
    <defs></defs>
    <g id="Page-1" stroke="none" stroke-width="1" fill="none" fill-rule="evenodd">
        <g id="if_Solar_energy_1301369">
            <polygon id="Shape" fill="#F2F2F2" points="11841 11973 13345 11973 13345 18223 11841 18223"></polygon>
            <path d="M2226,11937 L2741,11937 L2741,14177 C2683,14260 2399,14278 2226,14227 L2226,11937 Z" id="Shape" fill="#F2F2F2"></path>
            <polygon id="Shape" fill="#E5E8ED" points="11841 11974 13345 11974 13345 16205 11841 13843"></polygon>
            <polygon id="Shape" fill="#B9C1C9" points="13165 11973 13345 11973 13345 18223 13165 18223"></polygon>
            <polygon id="Shape" fill="#F2F2F2" points="884 8521 4748 7837 3369 12212 0 11405"></polygon>
            <polygon id="Shape" fill="#355A7A" points="937 8657 745 9335 3960 9023 4255 8117"></polygon>
            <polygon id="Shape" fill="#355A7A" points="716 9396 550 9985 3674 9978 3936 9108"></polygon>
            <polygon id="Shape" fill="#355A7A" points="533 10046 351 10664 3350 11028 3642 10080"></polygon>
            <polygon id="Shape" fill="#355A7A" points="322 10750 153 11302 3060 11959 3310 11131"></polygon>
            <polygon id="Shape" fill="#ECF0F1" points="1037 8979 1114 8911 1193 8615 1216 8611 1135 8911 1182 8954 1101 9038 944 9628 991 9682 910 9755 753 10345 802 10409 718 10473 559 11071 603 11145 525 11200 484 11353 465 11347 507 11190 465 11130 538 11073 700 10464 659 10405 732 10346 891 9747 850 9690 923 9628 1083 9031"></polygon>
            <polygon id="Shape" fill="#ECF0F1" points="1563 8897 1647 8811 1724 8528 1747 8525 1669 8812 1721 8859 1632 8949 1458 9593 1510 9653 1421 9731 1247 10374 1297 10440 1209 10513 1038 11146 1086 11229 1000 11286 950 11471 929 11466 980 11276 939 11204 1015 11148 1189 10503 1150 10435 1224 10375 1401 9723 1358 9668 1436 9593 1612 8942"></polygon>
            <polygon id="Shape" fill="#ECF0F1" points="2092 8808 2183 8715 2253 8443 2278 8439 2207 8716 2259 8770 2168 8864 1979 9584 2035 9634 1943 9717 1765 10397 1825 10471 1726 10547 1544 11241 1595 11318 1504 11393 1446 11615 1424 11608 1483 11382 1433 11297 1519 11244 1705 10537 1652 10470 1741 10398 1921 9708 1872 9644 1954 9584 2146 8856"></polygon>
            <polygon id="Shape" fill="#ECF0F1" points="2733 8702 2831 8602 2906 8336 2934 8332 2856 8603 2913 8656 2810 8762 2592 9520 2651 9602 2546 9680 2334 10415 2390 10496 2288 10577 2073 11321 2130 11402 2026 11484 1967 11689 1944 11682 2004 11471 1962 11375 2047 11323 2266 10565 2220 10498 2309 10416 2523 9670 2473 9608 2567 9521 2788 8753"></polygon>
            <polygon id="Shape" fill="#ECF0F1" points="3439 8587 3542 8495 3624 8220 3652 8215 3569 8496 3630 8554 3523 8654 3280 9474 3341 9566 3229 9647 2991 10452 3050 10536 2939 10627 2707 11410 2764 11504 2655 11585 2584 11827 2559 11820 2632 11572 2584 11475 2679 11412 2915 10614 2866 10536 2963 10454 3204 9637 3163 9566 3252 9474 3499 8644"></polygon>
            <polygon id="Shape" fill="#ECF0F1" fill-rule="nonzero" points="826 8999 4148 8437 4130 8493 818 9025"></polygon>
            <polygon id="Shape" fill="#ECF0F1" fill-rule="nonzero" points="625 9689 3817 9510 3798 9566 617 9715"></polygon>
            <polygon id="Shape" fill="#ECF0F1" fill-rule="nonzero" points="428 10381 3512 10531 3492 10598 421 10406"></polygon>
            <polygon id="Shape" fill="#ECF0F1" fill-rule="nonzero" points="222 11074 3183 11550 3164 11607 214 11099"></polygon>
            <polygon id="Shape" fill="#F2F2F2" points="7872 2005 18916 10 14973 12777 5345 10423"></polygon>
            <polygon id="Shape" fill="#B9C1C9" points="18880 0 19433 479 15469 13635 5627 10885 5345 10423 14973 12777"></polygon>
            <polygon id="Shape" fill="#355A7A" points="8139 2401 7563 4381 17191 3469 18073 825"></polygon>
            <polygon id="Shape" fill="#355A7A" points="7478 4558 6981 6277 16335 6258 17120 3718"></polygon>
            <polygon id="Shape" fill="#355A7A" points="6930 6455 6385 8261 15364 9322 16237 6554"></polygon>
            <polygon id="Shape" fill="#355A7A" points="6296 8511 5792 10123 14498 12038 15243 9622"></polygon>
            <polygon id="Shape" fill="#ECF0F1" points="8439 3341 8671 3142 8907 2279 8975 2268 8731 3144 8873 3269 8631 3512 8159 5236 8302 5394 8058 5607 7587 7328 7736 7516 7485 7702 7007 9447 7140 9663 6904 9823 6782 10270 6725 10254 6851 9795 6725 9619 6944 9453 7430 7676 7307 7502 7524 7331 8003 5584 7878 5417 8097 5237 8575 3492"></polygon>
            <polygon id="Shape" fill="#ECF0F1" points="10015 3103 10266 2851 10495 2026 10564 2016 10332 2854 10486 2989 10221 3255 9699 5133 9854 5309 9587 5537 9067 7412 9218 7606 8954 7819 8441 9666 8585 9908 8327 10076 8177 10616 8115 10599 8269 10044 8146 9835 8372 9672 8895 7790 8776 7589 8999 7415 9528 5511 9399 5354 9633 5133 10160 3232"></polygon>
            <polygon id="Shape" stroke="#F2F2F2" stroke-width="112.954" fill="#ECF0F1" points="11598 2843 11869 2571 12080 1776 12153 1764 11940 2573 12096 2733 11824 3007 11258 5106 11427 5254 11152 5496 10620 7479 10798 7697 10501 7919 9956 9944 10111 10169 9837 10388 9663 11034 9596 11016 9774 10354 9623 10107 9882 9951 10437 7888 10280 7692 10546 7483 11087 5469 10939 5284 11186 5107 11758 2983"></polygon>
            <polygon id="Shape" fill="#ECF0F1" points="13518 2532 13811 2240 14036 1466 14119 1452 13886 2242 14057 2400 13748 2708 13095 4921 13271 5159 12956 5389 12323 7532 12491 7770 12183 8004 11541 10176 11711 10414 11400 10652 11224 11250 11154 11231 11335 10616 11209 10336 11463 10184 12117 7971 11979 7775 12246 7536 12889 5359 12738 5178 13019 4922 13681 2682"></polygon>
            <polygon id="Shape" fill="#ECF0F1" points="15631 2198 15940 1930 16184 1125 16269 1113 16021 1932 16203 2102 15883 2393 15154 4786 15336 5054 15001 5292 14288 7640 14466 7887 14133 8150 13439 10436 13611 10710 13284 10949 13070 11654 12995 11632 13214 10910 13070 10625 13355 10444 14062 8115 13916 7887 14205 7645 14929 5261 14803 5054 15072 4787 15810 2365"></polygon>
            <polygon id="Shape" fill="#ECF0F1" fill-rule="nonzero" points="7806 3401 17755 1759 17699 1924 7784 3477"></polygon>
            <polygon id="Shape" fill="#ECF0F1" fill-rule="nonzero" points="7203 5413 16762 4890 16706 5054 7181 5488"></polygon>
            <polygon id="Shape" fill="#ECF0F1" fill-rule="nonzero" points="6614 7434 15850 7870 15789 8067 6592 7507"></polygon>
            <polygon id="Shape" fill="#ECF0F1" fill-rule="nonzero" points="5997 9455 14864 10846 14808 11011 5974 9530"></polygon>
            <polygon id="Shape" fill="#E4E7ED" points="2226 12105 2741 12231 2741 12599"></polygon>
            <polygon id="Shape" fill="#B9C1C9" points="4748 7837 4899 7968 3504 12446 77 11531 0 11405 3369 12212"></polygon>
        </g>
    </g>
</svg>