
<svg width="118px" height="110px" viewBox="0 0 118 110" version="1.1" xmlns="http://www.w3.org/2000/svg" xmlns:xlink="http://www.w3.org/1999/xlink">
    <!-- Generator: Sketch 48.1 (47250) - http://www.bohemiancoding.com/sketch -->
    <desc>Created with Sketch.</desc>
    <defs></defs>
    <g id="Page-1" stroke="none" stroke-width="1" fill="none" fill-rule="evenodd">
        <g id="if_Ethereum_Bitcoin_Cryptocurrency_2_money_bill_2931574" transform="translate(1.000000, 2.000000)" fill-rule="nonzero">
            <path d="M115.282,49.997 C106.081,52.13 95.122,51.441 85.822,49.795 C79.045,48.596 73.496,46.16 66.205,45.549 C63.462,45.319 59.215,45.276 57.307,46.406 L57.307,1.406 C59.216,0.276 63.463,0.319 66.205,0.549 C73.496,1.16 79.045,3.596 85.822,4.794 C95.122,6.439 106.08,7.129 115.282,4.996 L115.282,49.997 Z" id="Shape" stroke="#A5A3A3" stroke-width="3" fill="#355A7A" stroke-linecap="round" stroke-linejoin="round"></path>
            <path d="M57.218,65.082 L57.218,36.332" id="Shape" stroke="#A5A3A3" stroke-width="3" fill="#A67C52" stroke-linecap="round" stroke-linejoin="round"></path>
            <path d="M29.151,81.049 L40.968,89.582 L51.968,80.582 L59.968,89.332 L69.968,80.332 L77.968,89.332 L84.834,81.091 L113.218,105.582 L72.538,70.482 C63.588,62.762 50.348,62.762 41.398,70.482 L0.718,105.582" id="Shape" stroke="#A5A3A3" stroke-width="3" fill="#355A7A" stroke-linecap="round" stroke-linejoin="round"></path>
            <g id="Group" transform="translate(75.000000, 9.000000)">
                <polygon id="Shape" fill="#4D4D4D" points="10.99 23.262 10.988 23.263 10.988 23.261"></polygon>
                <polygon id="Shape" fill="#FFFFFF" points="21.271 17.185 10.992 23.261 10.99 23.262 10.988 23.261 0.708 17.185 10.988 0.128 10.989 0.125 10.991 0.128"></polygon>
                <polygon id="Shape" fill="#4D4D4D" points="10.992 23.261 10.992 23.263 10.99 23.262"></polygon>
                <polygon id="Shape" fill="#FFFFFF" points="21.292 19.134 11.001 33.625 0.711 19.134 11.001 25.21"></polygon>
            </g>
        </g>
    </g>
</svg>