<svg xmlns="http://www.w3.org/2000/svg" xmlns:xlink="http://www.w3.org/1999/xlink" width="21px" height="21px" viewBox="0 0 21 21" version="1.1">
    <!-- Generator: Sketch 46.2 (44496) - http://www.bohemiancoding.com/sketch -->
    <title>Shape</title>
    <desc>Created with Sketch.</desc>
    <defs/>
    <g id="Home" stroke="none" stroke-width="1" fill="none" fill-rule="evenodd">
        <g id="Home-v.-3" transform="translate(-168.000000, -8.000000)" fill-rule="nonzero" fill="#C6CCD1">
            <g id="Group-26" transform="translate(100.000000, 8.000000)">
                <g id="Group-32" transform="translate(34.000000, -0.000000)">
                    <path d="M44.2718147,0 C38.5988531,0 34,4.5877995 34,10.2452673 C34,15.9035672 38.5988531,20.4897025 44.2718147,20.4897025 C49.9447763,20.4897025 54.5427951,15.9035672 54.5427951,10.2452673 C54.5427951,4.5877995 49.9443591,0 44.2718147,0 Z M49.4458894,8.17957179 C49.451312,8.29024148 49.4533977,8.40132722 49.4533977,8.51366112 C49.4533977,11.9256992 46.8496752,15.8594658 42.0885587,15.8594658 C40.6269368,15.8594658 39.2658432,15.4321809 38.1204055,14.6999303 C38.3231304,14.7236453 38.5287753,14.7357108 38.7377572,14.7357108 C39.9507699,14.7357108 41.0670085,14.3229877 41.9525745,13.6306781 C40.8200678,13.6094595 39.8644241,12.8626471 39.5348917,11.8370802 C39.6925667,11.867868 39.8548301,11.8832619 40.0216819,11.8832619 C40.2577772,11.8832619 40.4863642,11.8524741 40.7036887,11.7929788 C39.5190408,11.5558294 38.6268007,10.5115402 38.6268007,9.26172165 C38.6268007,9.25048826 38.6268007,9.23967092 38.6272179,9.22843753 C38.9759382,9.42190146 39.3751311,9.53797982 39.799769,9.55170952 C39.1048312,9.08781214 38.6480744,8.29856251 38.6480744,7.40238765 C38.6480744,6.92933714 38.775716,6.48541023 38.9984632,6.10430709 C40.2752966,7.66616428 42.18283,8.69422745 44.3343841,8.80156873 C44.2901684,8.61309742 44.2672262,8.41547297 44.2672262,8.21327196 C44.2672262,6.78787964 45.4260121,5.63167262 46.8559321,5.63167262 C47.6005083,5.63167262 48.2729211,5.94537543 48.7451117,6.44671744 C49.3349329,6.33147118 49.8888809,6.11595653 50.3890192,5.82014394 C50.195054,6.42341856 49.7850157,6.92933714 49.2502556,7.24844861 C49.7745874,7.18604089 50.2734743,7.0470797 50.7373224,6.84196633 C50.3911049,7.36078251 49.9518675,7.81552676 49.4458894,8.17957179 Z" id="Shape"/>
                </g>
            </g>
        </g>
    </g>
</svg>
