
<svg width="100%" height="100%" viewBox="0 0 20 16" version="1.1" xmlns="http://www.w3.org/2000/svg" xmlns:xlink="http://www.w3.org/1999/xlink">
    <!-- Generator: Sketch 48.1 (47250) - http://www.bohemiancoding.com/sketch -->
    <desc>Created with Sketch.</desc>
    <defs></defs>
    <g id="Landing" stroke="none" stroke-width="1" fill="none" fill-rule="evenodd">
        <g id="Artboard" transform="translate(-1017.000000, -511.000000)" fill="#FFFFFF" fill-rule="nonzero">
            <g id="twitter" transform="translate(1017.000000, 511.000000)">
                <path d="M17.9098812,3.99307602 C17.9175297,4.16561404 17.9215677,4.33988304 17.9215677,4.51415205 C17.9215677,9.84130994 13.8044181,15.9840936 6.27501188,15.9840936 C3.96294537,15.9840936 1.81149644,15.3169591 0,14.1727719 C0.320190024,14.2099649 0.646128266,14.2294269 0.976769596,14.2294269 C2.89420428,14.2294269 4.65909739,13.5845146 6.06019002,12.5034386 C4.26912114,12.4712515 2.75738717,11.3052632 2.23643705,9.7042807 C2.48674584,9.75125146 2.74289786,9.77637427 3.00650831,9.77637427 C3.37961995,9.77637427 3.74171021,9.72720468 4.08517815,9.6348538 C2.21258907,9.26460819 0.801567696,7.6354152 0.801567696,5.68238596 C0.801567696,5.66516959 0.801567696,5.6485614 0.801567696,5.63134503 C1.35339667,5.93347368 1.98494062,6.11461988 2.65615202,6.13581287 C1.55771971,5.41295906 0.834774347,4.17876023 0.834774347,2.78007018 C0.834774347,2.04173099 1.03672209,1.34928655 1.38893112,0.753637427 C3.40821853,3.19279532 6.424038,4.79733333 9.8263658,4.96584795 C9.75653207,4.67064327 9.72047506,4.36280702 9.72047506,4.04692398 C9.72047506,1.82044444 11.5534917,0.0158596491 13.8137292,0.0158596491 C14.9912589,0.0158596491 16.0548219,0.505403509 16.8016152,1.28907602 C17.7342043,1.10788304 18.6102138,0.772538012 19.4013302,0.310502924 C19.0957245,1.25174269 18.4466033,2.04168421 17.6014727,2.54095906 C18.4292162,2.44350877 19.2185273,2.22680702 19.9525416,1.90577778 C19.4035629,2.71471345 18.7097387,3.42437427 17.9098812,3.99307602 Z" id="Shape"></path>
            </g>
        </g>
    </g>
</svg>