
<svg width="100%" height="100%" viewBox="0 0 26 36" version="1.1" xmlns="http://www.w3.org/2000/svg" xmlns:xlink="http://www.w3.org/1999/xlink">
    <!-- Generator: Sketch 49.3 (51167) - http://www.bohemiancoding.com/sketch -->
    <desc>Created with Sketch.</desc>
    <defs>
        <rect id="path-1" x="12" y="0" width="1.20000005" height="10" rx="0.600000024"></rect>
        <rect id="path-2" x="16" y="2" width="1.20000005" height="10" rx="0.600000024"></rect>
        <rect id="path-3" x="20" y="4" width="1.20000005" height="10" rx="0.600000024"></rect>
        <rect id="path-4" x="24" y="6" width="1.20000005" height="10" rx="0.600000024"></rect>
        <rect id="path-5" x="20" y="17" width="1.20000005" height="10" rx="0.600000024"></rect>
        <rect id="path-6" x="16" y="15" width="1.20000005" height="10" rx="0.600000024"></rect>
        <rect id="path-7" x="12" y="13" width="1.20000005" height="10" rx="0.600000024"></rect>
        <rect id="path-8" x="8" y="11" width="1.20000005" height="10" rx="0.600000024"></rect>
        <rect id="path-9" x="4" y="9" width="1.20000005" height="10" rx="0.600000024"></rect>
        <rect id="path-10" x="0" y="20" width="1.20000005" height="10" rx="0.600000024"></rect>
        <rect id="path-11" x="4" y="22" width="1.20000005" height="10" rx="0.600000024"></rect>
        <rect id="path-12" x="8" y="24" width="1.20000005" height="10" rx="0.600000024"></rect>
        <rect id="path-13" x="12" y="26" width="1.20000005" height="10" rx="0.600000024"></rect>
    </defs>
    <g id="Page-1" stroke="none" stroke-width="1" fill="none" fill-rule="evenodd">
        <g id="Group-20">
            <g id="Rectangle-13">
                <use fill="#FFFFFF" fill-rule="evenodd" xlink:href="#path-1"></use>
                <rect stroke="#FFFFFF" stroke-width="1" x="12.5" y="0.5" width="1" height="9" rx="0.5"></rect>
            </g>
            <g id="Rectangle-13">
                <use fill="#FFFFFF" fill-rule="evenodd" xlink:href="#path-2"></use>
                <rect stroke="#FFFFFF" stroke-width="1" x="16.5" y="2.5" width="1" height="9" rx="0.5"></rect>
            </g>
            <g id="Rectangle-13">
                <use fill="#FFFFFF" fill-rule="evenodd" xlink:href="#path-3"></use>
                <rect stroke="#FFFFFF" stroke-width="1" x="20.5" y="4.5" width="1" height="9" rx="0.5"></rect>
            </g>
            <g id="Rectangle-13">
                <use fill="#FFFFFF" fill-rule="evenodd" xlink:href="#path-4"></use>
                <rect stroke="#FFFFFF" stroke-width="1" x="24.5" y="6.5" width="1" height="9" rx="0.5"></rect>
            </g>
            <g id="Rectangle-13">
                <use fill="#FFFFFF" fill-rule="evenodd" xlink:href="#path-5"></use>
                <rect stroke="#FFFFFF" stroke-width="1" x="20.5" y="17.5" width="1" height="9" rx="0.5"></rect>
            </g>
            <g id="Rectangle-13">
                <use fill="#FFFFFF" fill-rule="evenodd" xlink:href="#path-6"></use>
                <rect stroke="#FFFFFF" stroke-width="1" x="16.5" y="15.5" width="1" height="9" rx="0.5"></rect>
            </g>
            <g id="Rectangle-13">
                <use fill="#FFFFFF" fill-rule="evenodd" xlink:href="#path-7"></use>
                <rect stroke="#FFFFFF" stroke-width="1" x="12.5" y="13.5" width="1" height="9" rx="0.5"></rect>
            </g>
            <g id="Rectangle-13">
                <use fill="#FFFFFF" fill-rule="evenodd" xlink:href="#path-8"></use>
                <rect stroke="#FFFFFF" stroke-width="1" x="8.5" y="11.5" width="1" height="9" rx="0.5"></rect>
            </g>
            <g id="Rectangle-13">
                <use fill="#FFFFFF" fill-rule="evenodd" xlink:href="#path-9"></use>
                <rect stroke="#FFFFFF" stroke-width="1" x="4.5" y="9.5" width="1" height="9" rx="0.5"></rect>
            </g>
            <g id="Rectangle-13">
                <use fill="#FFFFFF" fill-rule="evenodd" xlink:href="#path-10"></use>
                <rect stroke="#FFFFFF" stroke-width="1" x="0.5" y="20.5" width="1" height="9" rx="0.5"></rect>
            </g>
            <g id="Rectangle-13">
                <use fill="#FFFFFF" fill-rule="evenodd" xlink:href="#path-11"></use>
                <rect stroke="#FFFFFF" stroke-width="1" x="4.5" y="22.5" width="1" height="9" rx="0.5"></rect>
            </g>
            <g id="Rectangle-13">
                <use fill="#FFFFFF" fill-rule="evenodd" xlink:href="#path-12"></use>
                <rect stroke="#FFFFFF" stroke-width="1" x="8.5" y="24.5" width="1" height="9" rx="0.5"></rect>
            </g>
            <g id="Rectangle-13">
                <use fill="#FFFFFF" fill-rule="evenodd" xlink:href="#path-13"></use>
                <rect stroke="#FFFFFF" stroke-width="1" x="12.5" y="26.5" width="1" height="9" rx="0.5"></rect>
            </g>
        </g>
    </g>
</svg>
