
<svg width="188px" height="195px" viewBox="0 0 188 195" version="1.1" xmlns="http://www.w3.org/2000/svg" xmlns:xlink="http://www.w3.org/1999/xlink">
    <!-- Generator: Sketch 48.1 (47250) - http://www.bohemiancoding.com/sketch -->
    <desc>Created with Sketch.</desc>
    <defs></defs>
    <g id="Page-1" stroke="none" stroke-width="1" fill="none" fill-rule="evenodd">
        <g id="if_677_-_Solar_System_1654560">
            <path d="M133.206774,8.38360726 L137.54563,10.6481978 C145.996186,15.0592052 153.724218,20.7374732 160.467697,27.4645596 C178.147685,45.1010959 188,68.8265744 188,93.7686978 C188,118.710821 178.147745,142.436751 160.467697,160.073287 C148.539636,171.972032 133.683831,180.448554 117.348526,184.614126 L114.351684,185.378289 C110.784042,191.151108 104.387556,195 97.0923719,195 C90.3472487,195 84.3704731,191.709477 80.6875331,186.65053 L77.6424092,186.116503 C58.626335,182.782255 41.1919045,173.699382 27.5322415,160.07329 C24.517767,157.066225 21.707084,153.857613 19.1262115,150.472734 L16.2332336,146.6784 C10.9607012,144.363164 7.27797239,139.104823 7.27797239,132.99116 C7.27797239,132.21811 7.33694012,131.458738 7.45042222,130.717331 L5.79575996,126.242181 C1.951639,115.845284 0,104.849182 0,93.7687761 C0,68.8266527 9.85225497,45.1011742 27.5323033,27.4646378 C45.2121405,9.8281015 68.9966756,0 93.999948,0 C99.9423335,0 105.878475,0.55748397 111.715382,1.66996024 L116.512607,2.58429161 C117.911978,2.14747456 119.400426,1.91218332 120.943743,1.91218332 C126.039196,1.91218332 130.536066,4.4774594 133.206715,8.3835877 L133.206774,8.38360726 Z" id="Shape" fill="#FFFFFE"></path>
            <g id="_207376368" transform="translate(7.000000, 7.000000)">
                <path d="M86.4249132,60.3737832 C93.4601414,60.3737832 99.8296951,63.2272008 104.44049,67.8406201 C109.051241,72.4540394 111.903173,78.8272801 111.903173,85.8666257 C111.903173,92.9061066 109.051226,99.2793473 104.44049,103.892932 C99.8297401,108.506351 93.4601865,111.359769 86.4249132,111.359769 C79.389685,111.359769 73.0201313,108.506351 68.4093359,103.892932 C63.7985856,99.2793323 60.9466536,92.9060916 60.9466536,85.8666257 C60.9466536,78.8273252 63.7986006,72.4540845 68.4093359,67.8406201 C73.0200863,63.2272008 79.3896399,60.3737832 86.4249132,60.3737832 Z" id="_207377280" fill="#0E3D57"></path>
                <path d="M86.5075087,32.6305788 C100.66451,32.6305788 114.120231,38.2085655 124.129152,48.2232652 C126.661469,50.7570486 128.909283,53.5117901 130.855398,56.4425768 C126.840792,56.6692103 123.269258,58.5573437 120.816397,61.4302801 C119.466963,59.5377035 117.953277,57.7450502 116.283166,56.0737774 C108.358775,48.1449795 97.7158513,43.7333601 86.5074937,43.7333601 C84.11263,43.7333601 81.7438516,43.9355026 79.4215368,44.3294932 C79.4449498,43.9937135 79.457543,43.6547408 79.457543,43.3129266 C79.457543,39.6291092 78.081325,36.2663534 75.8164787,33.7096703 C79.303585,32.9972926 82.8823874,32.6306329 86.5074883,32.6306329 L86.5075087,32.6305788 Z M139.611601,82.5648608 C139.678824,83.6604028 139.712879,84.7614445 139.712879,85.866746 C139.712879,100.032123 134.1383,113.495602 124.129213,123.510467 C114.120187,133.524926 100.664437,139.103154 86.5075703,139.103154 C72.3505688,139.103154 58.8945477,133.524986 48.8854765,123.510467 C38.8768108,113.495647 33.3021111,100.032108 33.3021111,85.866746 C33.3021111,71.7015497 38.8770511,58.23804 48.885927,48.2233253 C49.5194945,47.5893911 50.1668974,46.9735588 50.8272513,46.3754813 C51.6575222,50.2325041 54.0229308,53.5191378 57.2517835,55.5632672 C57.077429,55.7320443 56.9037832,55.901708 56.7317338,56.073857 C48.8075229,64.0028352 44.3986209,74.6522204 44.3986209,85.8667655 C44.3986209,97.0816562 48.8073427,107.730876 56.7317338,115.659974 C64.656125,123.588953 75.2991991,128.000392 86.5077069,128.000392 C97.7161096,128.000392 108.359019,123.588938 116.28368,115.659974 C124.207891,107.730996 128.616613,97.0817614 128.616613,85.8667655 C128.616613,85.458754 128.610227,85.0516306 128.598521,84.6453952 C129.588426,84.862977 130.616464,84.9786896 131.671824,84.9786896 C134.610316,84.9786896 137.341478,84.0890165 139.611818,82.5648743 L139.611601,82.5648608 Z" id="_207375840" fill="#355A7A"></path>
                <path d="M86.5,0 C92.0148105,0 97.4636347,0.522304133 102.785277,1.53958451 C101.121549,3.74841445 100.134653,6.49622893 100.134653,9.47422754 C100.134653,10.0366407 100.169949,10.5908887 100.238237,11.1348469 C95.7431353,10.3182921 91.1483484,9.89910124 86.4999946,9.89910124 C66.1432107,9.89910124 46.8079078,17.9139684 32.4155692,32.3145177 C18.0231857,46.7152324 10.0131205,66.0615323 10.0131205,86.43025 C10.0131205,95.3472213 11.5482552,104.068433 14.482152,112.264094 C10.9342103,112.419915 7.74525866,113.962519 5.44458392,116.364073 C1.95127541,106.887351 0.119562823,96.7746063 0.119562823,86.43022 C0.119562823,63.430891 9.16918982,41.5754955 25.420062,25.3152015 C41.6709491,9.05490747 63.5143015,5.70990051e-05 86.4998745,5.70990051e-05 L86.5,0 Z M126.513158,9.81196816 C134.197917,13.8352843 141.305859,19.0375596 147.579812,25.3150993 C163.8307,41.5753934 172.880312,63.4307888 172.880312,86.4301178 C172.880312,109.429297 163.830685,131.284993 147.579812,147.545437 C136.502496,158.629165 122.825945,166.363315 107.961161,170.165508 C108.101461,169.2446 108.174361,168.301511 108.174361,167.341376 C108.174361,164.826751 107.674353,162.428924 106.770119,160.240499 C119.442354,156.766641 131.089383,150.046433 140.58441,140.5457 C154.976794,126.145346 162.986859,106.798685 162.986859,86.4299675 C162.986859,66.0614001 154.976809,46.7150551 140.58441,32.3142353 C135.196076,26.9227819 129.114916,22.4264907 122.546307,18.9107547 C124.921122,16.587276 126.423624,13.3748259 126.513203,9.81169769 L126.513158,9.81196816 Z M71.4617648,171.55091 C54.1237708,168.501568 38.0760686,160.209305 25.4200373,147.546188 C22.6280546,144.752409 20.0485525,141.793569 17.6911122,138.692221 C21.1132984,138.011257 24.0642099,136.020003 25.9998576,133.263323 C27.9704508,135.806873 30.1107701,138.240388 32.4155296,140.546466 C43.3108654,151.448109 57.0394966,158.688623 71.8994758,161.564309 C71.305817,163.383409 70.9835339,165.32515 70.9835339,167.342128 C70.9835339,168.789777 71.1488435,170.198385 71.4617242,171.55091 L71.4617648,171.55091 Z" id="_207376248" fill="#355A7A"></path>
                <g id="Group" transform="translate(7.358507, 1.803126)" fill="#355A7A">
                    <path d="M124.313715,60.2502691 C129.085512,60.2502691 132.953789,64.1207852 132.953789,68.8955242 C132.953789,73.6700829 129.085512,77.5405991 124.313715,77.5405991 C119.541739,77.5405991 115.673462,73.6700829 115.673462,68.8955242 C115.673462,64.1207852 119.541739,60.2502691 124.313715,60.2502691 Z" id="_207376536"></path>
                    <path d="M57.6216146,32.6577759 C62.507468,32.6577759 66.4681468,36.6207474 66.4681468,41.5096093 C66.4681468,46.3982909 62.507468,50.3612623 57.6216146,50.3612623 C52.735581,50.3612623 48.7749022,46.3982909 48.7749022,41.5096093 C48.7749022,36.6207474 52.735581,32.6577759 57.6216146,32.6577759 Z" id="_207376080"></path>
                    <path d="M7.71757205,116.082277 C11.9756997,116.082277 15.4276955,119.536256 15.4276955,123.797044 C15.4276955,128.057817 11.9757148,131.51163 7.71757205,131.51163 C3.45908394,131.51163 0.00726840278,128.057817 0.00726840278,123.797044 C0.00726840278,119.536271 3.45908394,116.082277 7.71757205,116.082277 Z" id="_207375936"></path>
                    <path d="M82.2200521,152.567039 C89.3799694,152.567039 95.1840594,158.374488 95.1840594,165.53855 C95.1840594,172.702432 89.3799694,178.509897 82.2200521,178.509897 C75.0603149,178.509897 69.25621,172.702447 69.25621,165.53855 C69.25621,158.374488 75.0602999,152.567039 82.2200521,152.567039 Z" id="_207375816"></path>
                    <path d="M105.967005,0.106384462 C110.142492,0.106384462 113.52724,3.49328708 113.52724,7.6708306 C113.52724,11.8487347 110.142477,15.235442 105.967005,15.235442 C101.791878,15.235442 98.4071155,11.8487197 98.4071155,7.6708306 C98.4071155,3.49328708 101.791878,0.106384462 105.967005,0.106384462 Z" id="_207375888"></path>
                </g>
            </g>
        </g>
    </g>
</svg>