
<svg width="20px" height="14px" viewBox="0 0 20 14" version="1.1" xmlns="http://www.w3.org/2000/svg" xmlns:xlink="http://www.w3.org/1999/xlink">
    <!-- Generator: Sketch 48.1 (47250) - http://www.bohemiancoding.com/sketch -->
    <desc>Created with Sketch.</desc>
    <defs></defs>
    <g id="Page-1" stroke="none" stroke-width="1" fill="none" fill-rule="evenodd">
        <g id="github" transform="translate(-78.000000, -18.000000)" fill="#ffffff" fill-rule="nonzero">
            <g id="youtube" transform="translate(78.000000, 18.000000)">
                <path d="M19.2642424,2.97226087 C19.2642424,1.40547826 18.009697,0.133304348 16.4636364,0.133304348 C14.2569697,0.0383478261 11.9993939,-0.00304347826 9.6969697,2.4969176e-16 C7.39393939,-0.00304347826 5.13636364,0.0383478261 2.92969697,0.133304348 C1.38363636,0.133304348 0.129090909,1.40547826 0.129090909,2.97226087 C0.036969697,4.2146087 -0.00303030303,5.45452174 -2.37467381e-16,6.69686957 C-0.00363636364,7.93678261 0.036969697,9.17913043 0.129090909,10.4202609 C0.129090909,11.9882609 1.38363636,13.2592174 2.92969697,13.2592174 C5.13636364,13.3535652 7.39393939,13.3961739 9.6969697,13.3913043 C11.9993939,13.3961739 14.2563636,13.3535652 16.4630303,13.2592174 C18.0090909,13.2592174 19.2636364,11.9882609 19.2636364,10.4202609 C19.3569697,9.17913043 19.3975758,7.93678261 19.3939394,6.69686957 C19.3975758,5.45452174 19.3575758,4.2146087 19.2642424,2.97226087 Z M7.27272727,10.9565217 L7.27272727,2.43478261 L13.3333333,6.69565217 L7.27272727,10.9565217 Z" id="youtube_1_"></path>
            </g>
        </g>
    </g>
</svg>